<?xml version="1.0" encoding="UTF-8"?>
<svg version="1.1" viewBox="0 0 1600 1600" xmlns="http://www.w3.org/2000/svg">
<path transform="translate(769 468)" d="m0 0c2.94 0.0071 5.89 0.0104 8.83 0.0138 11.2 0.0135 22.3 0.0459 33.5 0.0812 1.46 0.00454 1.46 0.00454 2.94 0.00917 28.8 0.0902 57.6 0.21 86.4 0.347 1.72 0.00816 1.72 0.00816 3.48 0.0165 1.15 0.00545 2.3 0.0109 3.48 0.0165 9.49 0.0446 19 0.0843 28.5 0.123 9.29 0.0382 18.6 0.0802 27.9 0.125 5.49 0.0264 11 0.0512 16.5 0.0722 5.1 0.0196 10.2 0.0437 15.3 0.0714 1.86 0.00933 3.73 0.017 5.59 0.0229 2.55 0.00833 5.09 0.0226 7.64 0.0384 1.1 0.00147 1.1 0.00147 2.21 0.00296 13 0.103 13 0.103 15.1 2.16 0.095 2.43 0.126 4.84 0.114 7.27 1.46e-4 0.761 2.92e-4 1.52 4.42e-4 2.31-6.99e-4 2.53-0.00849 5.05-0.0163 7.58-0.00186 1.75-0.00329 3.49-0.00429 5.24-0.00383 4.61-0.0137 9.22-0.0247 13.8-0.0102 4.7-0.0148 9.4-0.0198 14.1-0.0107 9.23-0.0278 18.5-0.0488 27.7-2.97 1.7-5.08 2.25-8.49 2.25-1.35 0.00657-1.35 0.00657-2.73 0.0133-1.48-0.00802-1.48-0.00802-2.98-0.0162-1.05 0.00226-2.1 0.00453-3.18 0.00686-3.53 0.00531-7.06-0.00355-10.6-0.0122-2.52 0.00111-5.05 0.00317-7.57 0.0061-5.44 0.00473-10.9 0.00373-16.3-0.00178-8.6-0.00821-17.2 0.00301-25.8 0.0172-2.94 0.0046-5.88 0.00905-8.83 0.0134-0.735 0.0011-1.47 0.0022-2.23 0.00333-8.37 0.0122-16.7 0.0197-25.1 0.0257-1.15 8.22e-4 -1.15 8.22e-4 -2.32 0.00166-12.4 0.00846-24.8 0.00512-37.2-8.15e-4 -12.7-0.00561-25.5 0.0079-38.2 0.0376-7.85 0.0176-15.7 0.0192-23.6 3.55e-4 -6.02-0.013-12-9.88e-5 -18 0.0224-2.47 0.00506-4.94 0.00153-7.41-0.0111-3.37-0.016-6.73-0.00153-10.1 0.0207-1.47-0.0181-1.47-0.0181-2.98-0.0365-4.58 0.062-6.65 0.108-10.3 3.02-0.995 1.31-0.995 1.31-2.01 2.64-1.24 1.41-1.24 1.41-2.51 2.84-0.875 1.03-1.75 2.06-2.62 3.1-0.474 0.561-0.947 1.12-1.44 1.7-3.88 4.62-7.6 9.36-11.3 14.1-3.63 4.65-7.4 9.15-11.2 13.6-3.31 3.89-6.53 7.84-9.7 11.8-2.78 3.48-5.58 6.94-8.39 10.4-0.554 0.682-1.11 1.36-1.68 2.07-2.82 3.47-5.65 6.94-8.47 10.4-5.15 6.32-10.3 12.7-15.3 19.1-3.96 5.08-8.06 10-12.3 14.9-3.31 3.89-6.49 7.86-9.62 11.9-4 5.14-8.13 10.1-12.4 15.1-3.91 4.59-7.64 9.31-11.3 14.1-3.16 4.05-6.4 7.99-9.8 11.8 1.41 4.29 3.46 6.87 6.56 10.1 3.41 3.63 6.68 7.31 9.81 11.2 3.41 4.23 6.9 8.38 10.4 12.5 0.756 0.88 0.756 0.88 1.53 1.78 1.55 1.8 3.11 3.61 4.66 5.41 11.4 13.3 11.4 13.3 16.4 19.4 4.1 5.05 8.35 9.97 12.6 14.9 3.99 4.58 7.93 9.2 11.8 13.8 3.34 3.97 6.71 7.91 10.1 11.8 4.31 5.01 8.59 10 12.9 15.1 3.4 4.03 6.83 8.03 10.3 12 3.49 4.06 6.94 8.15 10.3 12.3 4.1 5.05 8.35 9.97 12.6 14.9 3.99 4.58 7.93 9.2 11.8 13.8 3.38 4.01 6.8 8 10.2 12 3.58 4.16 7.11 8.36 10.6 12.6 2.85 3.51 5.77 6.91 8.81 10.2 3.89 4.28 7.59 8.68 11.2 13.2 1.58 1.94 3.2 3.85 4.85 5.73 1.24 1.43 1.24 1.43 2.5 2.88 0.754 0.852 1.51 1.7 2.29 2.58 2 3.15 2.14 4.94 1.65 8.61-2.44 2.44-3.07 2.25-6.42 2.27-0.929 0.00998-1.86 0.02-2.82 0.0302-1.53 9.97e-4 -1.53 9.97e-4 -3.1 0.00201-1.07 0.00832-2.15 0.0166-3.26 0.0252-3.57 0.0242-7.14 0.0329-10.7 0.0395-2.47 0.00896-4.95 0.0181-7.42 0.0274-5.19 0.0165-10.4 0.0242-15.6 0.0271-6.66 0.00403-13.3 0.0431-20 0.0887-5.11 0.0297-10.2 0.037-15.3 0.038-2.45 0.00421-4.91 0.0167-7.36 0.0375-3.43 0.0268-6.87 0.0221-10.3 0.00958-1.02 0.0148-2.03 0.0297-3.08 0.045-6.91-0.0719-6.91-0.0719-10.7-3.04-1.59-2.17-2.9-4.12-3.91-6.61h-2c-1.68-1.96-3.26-3.94-4.81-6-0.995-1.29-1.99-2.58-2.99-3.88-0.784-1.02-0.784-1.02-1.58-2.05-2.65-3.4-5.38-6.73-8.11-10.1-4.1-5.02-8.14-10.1-12.1-15.2-3.96-5.09-8.06-10-12.3-14.9-3.72-4.36-7.26-8.85-10.8-13.4-3.7-4.74-7.5-9.38-11.3-14-4.24-5.11-8.42-10.3-12.5-15.5-5.19-6.67-10.6-13.2-15.9-19.7-7.5-9.08-14.9-18.2-22.2-27.5-3.68-4.72-7.45-9.36-11.3-13.9-0.449-0.533-0.898-1.07-1.36-1.61-2.45-2.88-4.99-5.63-7.7-8.26-4.58 4.47-8.98 9.02-13.2 13.9-2.04 2.36-4.12 4.68-6.21 7-0.761 0.844-1.52 1.69-2.3 2.56-1.52 1.68-3.05 3.36-4.58 5.04-3.9 4.29-7.67 8.63-11.3 13.2-2.67 3.31-5.38 6.41-8.44 9.38-2.97 2.88-5.6 5.89-8.19 9.12-3.59 4.48-7.38 8.7-11.3 12.9-4.75 5.04-9.18 10.2-13.5 15.6-2.29 2.76-4.75 5.25-7.32 7.74-4.04 4.01-7.64 8.44-11.3 12.8-5.76 6.78-11.6 13.4-17.7 19.9-3.98 4.25-7.61 8.65-11.1 13.3-0.491 0.559-0.982 1.12-1.49 1.7h-2c-0.0457-56.9-0.081-114-0.102-171-0.00249-6.71-0.00509-13.4-0.00773-20.1-2.62e-4 -0.668-5.23e-4 -1.34-7.92e-4 -2.02-0.00853-21.6-0.0236-43.3-0.0419-64.9-0.0194-22.9-0.0314-45.7-0.0356-68.6-0.00275-13.7-0.0114-27.4-0.0277-41.1-0.0105-9.39-0.0138-18.8-0.0112-28.2 0.00128-5.42-7.28e-4 -10.8-0.0114-16.3-0.0097-4.96-0.0102-9.92-0.00339-14.9 8.48e-4 -1.8-0.00172-3.6-0.00797-5.39-0.00798-2.44-0.00373-4.87 0.00367-7.31-0.00525-0.704-0.0105-1.41-0.0159-2.13 0.027-3.91 0.435-6.98 2.26-10.5 3.46-1.68 7.71-1.14 11.5-1.13 0.75-0.00175 1.5-0.0035 2.27-0.00531 2.48-0.0044 4.95-0.00149 7.43 0.00189 1.73-6.74e-4 3.45-0.00164 5.18-0.0029 3.62-0.00147 7.24 6.68e-4 10.9 0.00534 4.63 0.00568 9.25 0.00242 13.9-0.00357 3.57-0.00362 7.13-0.00246 10.7 1.28e-4 1.71 6.65e-4 3.41-1.44e-4 5.12-0.00248 2.39-0.00256 4.78 0.00136 7.17 0.0069 0.698-0.00202 1.4-0.00405 2.11-0.00613 11.7 0.0499 11.7 0.0499 13.8 2.14 0.0979 2.87 0.13 5.72 0.12 8.59 8.54e-4 0.911 0.00171 1.82 0.00259 2.76 0.00166 3.08-0.00387 6.16-0.00932 9.24-2.82e-4 2.2-1.24e-4 4.39 4.42e-4 6.59 2.88e-4 5.99-0.00561 12-0.0126 18-0.00623 6.25-0.00684 12.5-0.00803 18.7-0.00276 10.5-0.00902 21-0.0179 31.5-0.00917 10.8-0.0163 21.6-0.0205 32.4-2.63e-4 0.666-5.25e-4 1.33-7.96e-4 2.02-0.0013 3.34-0.00257 6.68-0.00381 10-0.0105 27.7-0.0281 55.5-0.0503 83.2 3.15-2.47 5.76-4.71 8.12-7.94 2.92-3.86 5.98-7.58 9.12-11.2 4.27-5 8.38-10.1 12.4-15.3 4.28-5.48 8.7-10.8 13.1-16.2 3.7-4.47 7.32-8.99 10.9-13.6 4.42-5.68 9.01-11.2 13.7-16.7 5.93-6.95 11.6-14.1 17.3-21.2 7.25-9.04 14.6-18 21.9-27 4.57-5.59 9.12-11.2 13.7-16.8 3.27-4.02 6.54-8.05 9.8-12.1 2.76-3.4 5.52-6.79 8.28-10.2 0.558-0.687 1.12-1.37 1.69-2.08 1.1-1.36 2.21-2.72 3.31-4.08 2.41-2.97 4.82-5.93 7.25-8.87 3.23-3.92 6.42-7.8 9.3-12 0.681-0.928 1.36-1.86 2.06-2.81h2c0.335-0.781 0.335-0.781 0.676-1.58 1.82-3.33 4.15-6.21 6.51-9.17 0.491-0.62 0.982-1.24 1.49-1.88 10.2-12.8 10.2-12.8 13.3-14.4 1.46-0.152 2.93-0.247 4.4-0.313 0.921-0.0415 1.84-0.083 2.79-0.126 1.52-0.0583 1.52-0.0583 3.07-0.118 1.07-0.0422 2.14-0.0843 3.24-0.128 12.7-0.455 25.5-0.445 38.2-0.41z" fill="#020202"/>
<path transform="translate(836,645)" d="m0 0h91c0.0441 38.5 0.081 77.1 0.102 116 0.0025 4.55 0.00509 9.09 0.00773 13.6 5.25e-4 0.905 0.00105 1.81 0.00159 2.74 0.00871 14.7 0.0245 29.3 0.0429 44 0.0187 15 0.0298 30.1 0.0339 45.1 0.00275 9.29 0.0114 18.6 0.0277 27.9 0.0105 6.36 0.0138 12.7 0.0112 19.1-0.00128 3.67 7.22e-4 7.35 0.0114 11 0.0115 3.98 0.00758 7.96 0.0021 11.9 0.00583 1.17 0.0117 2.33 0.0177 3.54-0.00398 1.06-0.00796 2.13-0.0121 3.22 0.00114 1.38 0.00114 1.38 0.0023 2.78-0.267 2.62-0.836 4.23-2.25 6.44-3.13 1.56-6.46 1.16-9.89 1.16-0.815 0.00496-1.63 0.00993-2.47 0.015-2.7 0.0146-5.4 0.0214-8.11 0.0269-1.87 0.00575-3.75 0.0115-5.62 0.0173-3.93 0.0105-7.86 0.0164-11.8 0.0198-5.04 0.00549-10.1 0.0295-15.1 0.058-3.87 0.0186-7.74 0.0238-11.6 0.0254-1.86 0.00303-3.72 0.0111-5.58 0.0242-2.6 0.017-5.19 0.0152-7.79 0.00869-0.772 0.00921-1.54 0.0184-2.34 0.0279-2.87-0.0226-5.11-0.047-7.62-1.53-3.23-5.64-2.2-13.4-2.19-19.7-0.00156-1.2-0.00312-2.39-0.00473-3.63-0.0033-3.32-0.00211-6.63 9.86e-4 -9.95 0.00226-3.58-0.00123-7.16-0.00398-10.7-0.00445-7.01-0.00349-14-5.87e-4 -21 0.00226-5.7 0.00256-11.4 0.00148-17.1-1.53e-4 -0.811-3.06e-4 -1.62-4.64e-4 -2.46-3.2e-4 -1.65-6.44e-4 -3.29-9.73e-4 -4.94-0.00285-15.4 4.27e-4 -30.9 0.0058-46.3 0.00447-13.2 0.00369-26.5-9.19e-4 -39.7-0.00535-15.4-0.00746-30.8-0.00439-46.2 3.19e-4 -1.64 6.33e-4 -3.28 9.43e-4 -4.92 1.54e-4 -0.807 3.09e-4 -1.61 4.68e-4 -2.45 8.63e-4 -5.69-5.94e-4 -11.4-0.00295-17.1-0.0028-6.93-0.00205-13.9 0.00328-20.8 0.00263-3.54 0.00366-7.07 3.51e-4 -10.6-0.00353-3.83 6.85e-4 -7.67 0.00568-11.5-0.00223-1.12-0.00446-2.24-0.00676-3.39 0.00261-1.03 0.00522-2.06 0.0079-3.12 1.62e-4 -0.885 3.25e-4 -1.77 4.92e-4 -2.68 0.139-2.89 0.649-5.76 1.13-8.62z" fill="#020202"/>
<path transform="translate(1186,698)" d="m0 0c0.962 0.732 1.92 1.46 2.91 2.22 5.23 4.07 5.23 4.07 7.09 5.78v2h2v2h2c3.23 3.47 6.09 7.26 9 11 0.666 0.852 1.33 1.7 2.02 2.58 4.18 5.54 7.86 11.3 11.4 17.3 0.656 1.09 0.656 1.09 1.33 2.2 0.407 0.695 0.814 1.39 1.23 2.1 0.544 0.924 0.544 0.924 1.1 1.87 1.06 2.29 1.44 4.49 1.9 6.95-6.72 1.84-13.5 3.67-20.2 5.5-2.29 0.623-4.57 1.25-6.86 1.87-3.29 0.899-6.58 1.79-9.87 2.69-1.02 0.279-2.04 0.558-3.09 0.846-4.65 1.26-9.22 2.44-14 3.1-1.4-3.91-2.42-7.79-3.24-11.9-4.05-20-10.5-39.5-23.1-55.8-1.7-2.3-1.7-2.3-2.68-4.48-1.31-2.34-2.6-2.75-5.02-3.82-1.2-0.915-2.39-1.85-3.56-2.81-13.5-10.3-29.6-10.8-45.8-8.76-2.68 0.656-5.07 1.49-7.6 2.57-1.14 0.487-2.27 0.975-3.45 1.48-6.85 3.11-12.5 6.71-17.9 12-1.67 1.5-1.67 1.5-3.67 1.5-0.257 0.572-0.513 1.14-0.777 1.73-1.35 2.49-2.93 4.37-4.79 6.52-9.07 11.2-15 24.1-19.4 37.8-0.221 0.672-0.443 1.34-0.671 2.04-6.12 18.9-8.85 39.1-9.33 59-0.0599 1.62-0.0599 1.62-0.121 3.27-0.861 41.9 8.1 86.1 37.4 117 12.6 12 28.8 19.1 45.8 22.2 1.34 0.277 1.34 0.277 2.7 0.559 25 3.35 51.8-1.43 72.6-16.4 27.6-22.2 42-51.4 51.1-85 1.39-4.99 1.39-4.99 3.6-7.2 2.62 0.375 2.62 0.375 5 1-4.03 15.5-8.56 30.4-15 45-0.337 0.768-0.674 1.54-1.02 2.33-13.5 30.6-35.7 56.2-67.1 69.2-4.24 1.62-8.54 2.96-12.9 4.2-1.03 0.298-1.03 0.298-2.08 0.602-12 3.24-24.1 4.03-36.5 3.96-0.693-0.00149-1.39-0.00298-2.1-0.00452-17-0.0653-33.2-1.9-49.3-7.31-1.15-0.37-2.29-0.74-3.47-1.12-33.3-11.2-60-34.6-75.8-65.8-6.46-13.2-10.9-26.6-13.8-41.1-0.151-0.747-0.302-1.49-0.458-2.26-7.71-39.3-1.4-81.9 20.7-116 2.71-3.88 5.67-7.49 8.75-11.1 0.84-1 1.68-2.01 2.55-3.04 24.1-28 59.8-43.1 96.1-46.8 34.7-2.57 68.4 4.4 96.4 25.8z" fill="#020202"/>
</svg>
