<?xml version="1.0" encoding="UTF-8"?>
<svg version="1.1" viewBox="0 0 1600 1600" xmlns="http://www.w3.org/2000/svg">
<path transform="translate(766 467)" d="m0 0c3.85 0.0052 7.69 1.05e-4 11.5-0.00635 13.2-0.00298 26.4 0.105 39.5 0.373 28.1 0.564 56.1 0.836 84.2 0.763 2.61-0.00672 5.23-0.0128 7.84-0.0186 16-0.0362 32-0.0828 48.1-0.152 8.03-0.0345 16.1-0.0583 24.1-0.0702 5.02-0.00805 10-0.0291 15.1-0.0602 3.08-0.0159 6.17-0.0194 9.25-0.0192 1.43-0.00243 2.86-0.01 4.28-0.0231 1.94-0.0171 3.88-0.014 5.83-0.00988 1.09-0.00406 2.17-0.00813 3.29-0.0123 2.67 0.366 2.67 0.366 4.52 1.68 1.91 2.8 1.55 5.9 1.51 9.17 0.00204 0.76 0.00409 1.52 0.0062 2.3 0.00301 2.51-0.0155 5.02-0.0345 7.53-0.00306 1.74-0.00493 3.48-0.00568 5.23-0.0046 3.65-0.019 7.3-0.0412 10.9-0.0283 4.69-0.0392 9.38-0.0437 14.1-0.00415 3.6-0.014 7.19-0.0259 10.8-0.00571 1.73-0.0105 3.46-0.0143 5.19-0.00684 2.41-0.0205 4.82-0.0363 7.23-0.00112 0.721-0.00224 1.44-0.00339 2.18-0.0431 4.93-0.0431 4.93-1.16 6.04-1.37 0.101-2.75 0.132-4.12 0.136-0.894 0.00486-1.79 0.00972-2.71 0.0147-0.994 2.96e-4 -1.99 5.92e-4 -3.01 8.97e-4 -1.05 0.00423-2.09 0.00846-3.17 0.0128-3.54 0.0131-7.07 0.0191-10.6 0.0251-2.52 0.00794-5.05 0.0163-7.57 0.0251-5.45 0.0181-10.9 0.0332-16.4 0.0458-7.89 0.0183-15.8 0.0429-23.7 0.0694-12.8 0.0428-25.6 0.0819-38.4 0.118-0.767 0.00216-1.53 0.00433-2.32 0.00655-5.44 0.0153-10.9 0.0305-16.3 0.0457-6.21 0.0173-12.4 0.0347-18.6 0.0522-0.765 0.00216-1.53 0.00432-2.32 0.00654-12.7 0.0361-25.5 0.0761-38.2 0.119-7.87 0.0262-15.7 0.0488-23.6 0.067-6.03 0.0142-12.1 0.0333-18.1 0.0543-2.47 0.00777-4.95 0.0138-7.42 0.0181-3.37 0.00604-6.74 0.0181-10.1 0.0316-0.985 2.96e-4 -1.97 5.92e-4 -2.98 8.97e-4 -0.905 0.00486-1.81 0.00972-2.74 0.0147-0.778 0.00212-1.56 0.00423-2.36 0.00641-2.52 0.144-4.83 0.489-7.27 1.13-1.08 1.75-1.08 1.75-2 4-1.55 2.15-3.21 4.03-5 6h-2c-0.263 0.737-0.526 1.47-0.797 2.23-1.21 2.79-2.52 4.68-4.45 7.02-1.06 1.29-1.06 1.29-2.14 2.61-0.405 0.488-0.811 0.976-1.23 1.48-1.59 1.91-3.16 3.82-4.74 5.74-1.83 2.22-3.65 4.44-5.48 6.65-4.44 5.38-8.82 10.8-13.2 16.3-0.688 0.851-1.38 1.7-2.09 2.58-2 2.47-2 2.47-3.91 5.42h-2c-0.356 1.08-0.356 1.08-0.719 2.18-1.48 3.26-3.32 5.29-5.78 7.88-2.73 2.88-4.86 5.32-6.5 8.94-0.979 1.02-1.98 2.02-3 3l-2 3h-2c-0.254 0.563-0.508 1.13-0.77 1.71-1.39 2.6-3.05 4.7-4.92 6.98-3.39 4.16-6.66 8.39-9.87 12.7-0.477 0.534-0.954 1.07-1.45 1.62h-2l-0.812 2.44c-0.392 0.846-0.784 1.69-1.19 2.56-0.99 0.33-1.98 0.66-3 1-0.675 1.66-1.34 3.33-2 5-1.5 1.97-3.07 3.88-4.69 5.75-0.907 1.06-1.81 2.12-2.72 3.19-0.443 0.519-0.887 1.04-1.34 1.57-1.71 2.03-3.33 4.13-4.94 6.24-2.1 2.74-4.26 5.37-6.56 7.94-3.35 3.78-6.53 7.68-9.69 11.6-0.497 0.611-0.995 1.22-1.51 1.85-2.89 3.48-2.89 3.48-3.56 7.84 1.27 1.44 1.27 1.44 3 3 2.31 2.78 4.57 5.59 6.84 8.41 2.02 2.52 2.02 2.52 3.94 4.31 1.22 1.28 1.22 1.28 1.22 3.28 0.99 0.33 1.98 0.66 3 1 1.29 1.46 1.29 1.46 2.62 3.38 5.94 8.2 12.5 15.8 19.3 23.2 3.61 3.9 6.93 7.96 10.2 12.1 2.19 2.76 4.5 5.39 6.84 8.02 3.02 3.45 5.97 6.97 8.93 10.5 2.55 3.02 5.12 6.01 7.74 8.97 2.49 2.82 4.85 5.73 7.19 8.69 3.41 4.3 7 8.36 10.7 12.4 3.73 4.16 7.31 8.43 10.9 12.7 2.04 2.42 4.12 4.81 6.22 7.19 2.31 2.81 2.31 2.81 2.31 4.81 0.99 0.33 1.98 0.66 3 1 1.37 1.98 2.7 3.98 4 6 1.53 1.76 3.09 3.49 4.69 5.19 3.4 3.68 6.67 7.41 9.81 11.3 3.01 3.73 6.12 7.3 9.38 10.8 4.28 4.64 8.16 9.48 12 14.5 3.75 4.83 7.75 9.34 11.9 13.8 6.19 6.79 6.19 6.79 6.19 9.4h2v2h2c1.36 1.75 2.71 3.51 4.01 5.31 1.56 2.1 3.15 4.14 4.8 6.16 0.494 0.611 0.989 1.22 1.5 1.85 0.994 1.23 1.99 2.45 3 3.66 2.59 3.22 4.6 5.78 4.7 10-2 2-2 2-4.01 2.25-0.831-0.00184-1.66-0.00369-2.52-0.00559-0.954 0.00275-1.91 0.0055-2.89 0.00833-1.05-0.00719-2.1-0.0144-3.18-0.0218-1.1 2.92e-4 -2.2 5.84e-4 -3.34 8.85e-4 -3.66-0.0014-7.32-0.017-11-0.0326-2.53-0.00373-5.06-0.00658-7.59-0.00858-5.99-0.00687-12-0.0226-18-0.0427-6.82-0.0223-13.6-0.0333-20.5-0.0434-14-0.0209-28.1-0.0561-42.1-0.101v-2c-0.99-0.33-1.98-0.66-3-1-1.51-1.68-1.51-1.68-3.12-3.88-2.64-3.5-5.33-6.93-8.12-10.3-3.51-4.26-6.92-8.58-10.3-12.9-3.06-3.92-6.15-7.76-9.5-11.4-4.12-4.53-7.79-9.37-11.5-14.2-4.87-6.4-9.96-12.6-15.1-18.8-3.15-3.83-6.18-7.71-9.09-11.7-1.25-1.67-1.25-1.67-2.7-3.06-2.05-2.06-3.79-4.31-5.59-6.59-1.33-1.63-2.66-3.25-4-4.88-4.29-5.24-8.53-10.5-12.8-15.8-0.48-0.602-0.959-1.2-1.45-1.82-0.463-0.582-0.927-1.16-1.4-1.76-1.39-1.71-2.82-3.37-4.25-5.04-2.14-2.68-2.14-2.68-2.14-4.68h-2c-1.34-1.61-2.59-3.3-3.81-5-5.77-7.9-11.9-15.5-18.2-23-0.595-0.718-1.19-1.44-1.8-2.18-1.76-2.12-3.54-4.22-5.32-6.32-0.544-0.653-1.09-1.31-1.65-1.98-1.34-1.57-2.78-3.05-4.23-4.52-3.05-0.353-3.05-0.353-4.72 1.71-0.588 0.733-1.18 1.47-1.78 2.22-3.18 3.96-3.18 3.96-6.5 5.06l-2 5c-0.99 0.33-1.98 0.66-3 1-0.668 1.33-1.33 2.67-2 4-1.8 2.07-3.61 4.08-5.5 6.06-2.71 2.88-5.3 5.64-7.5 8.94h-2c-0.262 0.568-0.523 1.14-0.793 1.72-3.28 6.19-8.22 11.4-13.2 16.3-0.905 1.1-1.8 2.2-2.69 3.31-0.763 0.887-1.53 1.77-2.31 2.69h-2c-0.227 0.536-0.454 1.07-0.688 1.62-2.88 5.21-7.14 9.2-11.3 13.4-5.75 6.06-11.3 12.1-16 19-0.991 1.01-1.99 2.01-3 3-0.968 1.12-1.93 2.24-2.88 3.38-2.57 3.03-5.32 5.82-8.12 8.62l-2 2.5c-5.64 7.05-5.64 7.05-10 8.5-0.271 0.713-0.541 1.43-0.82 2.16-1.61 3.87-4.16 6.31-7.05 9.28-3.08 3.18-5.99 6.19-8.32 9.97-0.596 0.855-1.19 1.71-1.8 2.59h-3c-1.17-3.51-1.14-6.66-1.13-10.3-0.00205-0.754-0.00411-1.51-0.00622-2.28-0.00569-2.55-0.00421-5.09-0.00279-7.64-0.00258-1.84-0.0056-3.67-9e-3 -5.51-0.00809-5.06-0.00986-10.1-0.0106-15.2-0.00185-5.45-0.00939-10.9-0.0161-16.3-0.0136-11.9-0.0196-23.8-0.024-35.8-0.00276-7.44-7e-3 -14.9-0.0115-22.3-0.0122-20.6-0.0225-41.2-0.0259-61.8-2.2e-4 -1.32-4.39e-4 -2.64-6.65e-4 -3.99-2.21e-4 -1.33-4.41e-4 -2.67-6.61e-4 -4-4.43e-4 -2.68-8.9e-4 -5.35-0.00134-8.03-1.09e-4 -0.664-2.19e-4 -1.33-3.31e-4 -2.01-0.00363-21.5-0.0196-43.1-0.0429-64.6-0.0246-22.8-0.0383-45.5-0.0395-68.3-9.18e-4 -12.4-0.00671-24.8-0.0248-37.2-0.0154-10.6-0.0205-21.1-0.0123-31.7 0.00392-5.39 0.00291-10.8-0.0111-16.2-0.0127-4.93-0.0116-9.87 5.91e-4 -14.8 0.00197-1.79-0.00119-3.58-0.00984-5.37-0.011-2.42-0.00368-4.85 0.00839-7.27-0.0076-0.703-0.0152-1.41-0.023-2.13 0.0326-3.01 0.255-5.05 1.73-7.71 3.56-3.42 8.07-2.75 12.7-2.74 0.817-0.00336 1.63-0.00672 2.47-0.0102 2.7-0.00951 5.4-0.0115 8.1-0.0125 1.87-0.00321 3.75-0.00658 5.62-0.0101 3.93-0.00599 7.86-0.00784 11.8-0.00725 5.04 1.02e-4 10.1-0.0136 15.1-0.0308 3.87-0.0111 7.74-0.0131 11.6-0.0126 1.86-0.00118 3.72-0.00562 5.58-0.0133 2.6-0.00975 5.19-0.00694 7.79-8.95e-4 0.774-0.00562 1.55-0.0112 2.34-0.017 5.32 0.0316 5.32 0.0316 7.55 2.26 0.251 2.67 0.372 5.24 0.41 7.92 0.0191 0.851 0.0382 1.7 0.0578 2.58 0.0613 2.94 0.106 5.87 0.15 8.81 0.0184 1.04 0.0369 2.09 0.0559 3.17 0.604 34.4 0.478 68.8 0.456 103-0.00438 7.64-0.00121 15.3 0.00363 22.9 0.00454 7.46 0.00518 14.9 0.00256 22.4-0.00155 4.42-0.00179 8.84 0.00154 13.3 0.00289 4.12 8.84e-4 8.23-0.00489 12.3-0.00132 1.5-9.49e-4 3.01 0.00126 4.51 0.00275 2.06-7.11e-4 4.11-0.00568 6.17-5.66e-4 1.72-5.66e-4 1.72-0.00114 3.47-0.133 3.49-0.574 6.85-1.13 10.3 4.26-0.919 4.26-0.919 7.12-3.88 0.289-0.701 0.578-1.4 0.875-2.12l4-4c1.58-2.11 3.12-4.24 4.63-6.39 0.677-0.797 0.677-0.797 1.37-1.61h2l0.688-2.12c1.59-3.48 3.79-6.06 6.31-8.88 4.83-5.38 4.83-5.38 9.12-11.2 2.01-3.01 4.32-5.25 6.88-7.81 1.31-1.76 2.56-3.55 3.8-5.36 1.53-2.09 3.37-3.81 5.2-5.64l1-3h3l2-5h2l0.812-2.44c0.392-0.846 0.784-1.69 1.19-2.56 0.99-0.33 1.98-0.66 3-1 0.672-1.66 1.34-3.33 2-5 1.58-2.07 3.17-4.04 4.88-6 3.1-3.62 6.15-7.27 9.12-11 0.972-1.15 1.95-2.3 2.94-3.44 0.508-0.592 1.02-1.18 1.54-1.79 0.991-1.15 1.99-2.3 2.98-3.45 2.1-2.44 3.51-4.23 4.54-7.32 1.64-1.69 3.31-3.35 5-5 1.5-1.77 2.98-3.56 4.44-5.38 2.59-3.2 5.18-6.39 7.88-9.5 4.29-4.71 4.29-4.71 7.59-10.1 1.23-2.27 2.45-3.34 4.48-4.91 3.28-2.71 5.41-5.46 7.62-9.12 2.41-3.77 4.79-6.89 8-10 1.34-1.66 2.68-3.33 4-5 0.892-1.05 1.79-2.09 2.69-3.12 2.72-3.16 5.4-6.35 8.06-9.56 0.758-0.911 1.52-1.82 2.3-2.76 1.95-2.36 1.95-2.36 2.91-4.57 1.51-2.85 3.74-4.74 6.05-6.98 4.01-4.65 8.03-9.35 11.4-14.5 1.43-2.2 2.71-3.74 4.62-5.5l2.62-2.62c3.5-3.5 3.5-3.5 7.66-3.69 0.922-0.0413 1.84-0.0827 2.8-0.125 1.53-0.0581 1.53-0.0581 3.09-0.117 1.07-0.042 2.14-0.0841 3.24-0.127 12.3-0.44 24.6-0.469 36.9-0.448zm-234 225 1 2z" fill="#FDF7E6"/>
<path transform="translate(843 644)" d="m0 0c1.21 0.00304 1.21 0.00304 2.44 0.00613 0.845-0.00175 1.69-0.0035 2.56-0.00531 2.81-0.00442 5.62-0.00148 8.43 0.00189 1.94-6.73e-4 3.89-0.00164 5.83-0.0029 4.08-0.00148 8.16 6.78e-4 12.2 0.00534 5.24 0.00569 10.5 0.00242 15.7-0.00357 4.02-0.00361 8.03-0.00247 12.1 1.28e-4 1.93 6.69e-4 3.87-1.57e-4 5.8-0.00248 2.7-0.00253 5.4 0.00132 8.1 0.0069 0.805-0.00202 1.61-0.00405 2.44-0.00613 5.53 0.0213 5.53 0.0213 7.76 1.14 0.0457 38.7 0.081 77.4 0.102 116 0.0025 4.56 0.00509 9.13 0.00773 13.7 5.25e-4 0.908 0.00105 1.82 0.00159 2.75 0.00871 14.7 0.0245 29.4 0.0429 44.2 0.0187 15.1 0.0298 30.2 0.0339 45.3 0.00275 9.32 0.0114 18.6 0.0277 28 0.0105 6.39 0.0138 12.8 0.0112 19.2-0.00129 3.69 7.32e-4 7.38 0.0114 11.1 0.0115 3.99 0.00758 7.99 0.0021 12 0.00583 1.17 0.0117 2.35 0.0177 3.56-0.00398 1.06-0.00796 2.13-0.0121 3.23 0.00114 1.38 0.00114 1.38 0.0023 2.79-0.248 2.32-0.248 2.32-2.25 5.32-2.76 0.302-5.31 0.409-8.07 0.388-0.834 0.00526-1.67 0.0105-2.53 0.0159-2.77 0.0132-5.53 0.00445-8.3-0.00568-1.92 0.00202-3.84 0.00493-5.75 0.0087-4.02 0.00443-8.05-0.00202-12.1-0.016-5.16-0.0171-10.3-0.00726-15.5 0.0107-3.96 0.0108-7.92 0.00739-11.9-3.83e-4 -1.9-2e-3 -3.81 4.65e-4 -5.71 0.00744-2.66 0.0076-5.32-0.00398-7.98-0.0207-1.19 0.00911-1.19 0.00911-2.39 0.0184-5.33-0.0622-5.33-0.0622-7.76-1.81-1.97-3-2.18-4.87-2.18-8.43-0.00322-1.03-0.00645-2.05-0.00977-3.11 0.00155-1.14 0.0031-2.27 0.00469-3.45-0.00227-1.2-0.00453-2.4-0.00687-3.64-0.00525-3.35-0.00598-6.69-0.00481-10 2.03e-4 -3.6-0.00531-7.21-0.0101-10.8-0.00832-7.07-0.0111-14.1-0.0116-21.2-4.75e-4 -5.74-0.00253-11.5-0.0057-17.2-0.00881-16.3-0.0134-32.6-0.0127-48.8 4e-5 -0.878 7.99e-5 -1.76 1.21e-4 -2.66 4.09e-5 -0.879 8.18e-5 -1.76 1.24e-4 -2.66 4.06e-4 -14.2-0.00916-28.5-0.0233-42.7-0.0144-14.6-0.0213-29.2-0.0204-43.9 3.32e-4 -8.21-0.00242-16.4-0.0132-24.6-0.0091-6.99-0.0113-14-0.00449-21 0.00327-3.57 0.00332-7.13-0.00535-10.7-0.0093-3.87-0.00309-7.74 0.00463-11.6-0.00772-1.69-0.00772-1.69-0.0156-3.41 0.0739-16.7 0.0739-16.7 8.89-16.8zm-7.62 8.14v8h1v-8h-1z" fill="#FEF8E7"/>
<path transform="translate(1119 671)" d="m0 0c0.801 0.0392 1.6 0.0783 2.43 0.119 6.19 0.337 12.3 0.715 18.1 2.88 3.05 1.08 6.01 1.89 9.19 2.5 3.76 0.798 6.84 2.05 10.2 3.88 1.64 0.879 3.31 1.7 5 2.5 7.39 3.5 13.8 7.67 20.2 12.7 1.27 0.959 1.27 0.959 2.56 1.94 9.5 7.35 18.4 15.6 24.4 26.1v2h2c1.08 1.4 1.08 1.4 2.25 3.38 0.436 0.727 0.871 1.45 1.32 2.2 0.708 1.2 0.708 1.2 1.43 2.42 0.77 1.26 0.77 1.26 1.55 2.55 7.45 12.2 7.45 12.2 7.45 16.5-11.3 3.5-22.6 6.77-34 9.83-1.35 0.362-2.69 0.726-4.04 1.09-1.91 0.518-3.82 1.03-5.73 1.54-1.11 0.297-2.22 0.594-3.36 0.9-2.89 0.639-2.89 0.639-6.89 0.639-1.88-5.65-3.29-11.3-4.38-17.1-1.89-9.75-4.31-19.8-8.94-28.6-1.69-3.25-1.69-3.25-1.69-7.25h-2c-0.672-1.29-1.34-2.58-2-3.88-0.371-0.719-0.742-1.44-1.12-2.18-0.875-1.95-0.875-1.95-0.875-3.95h-2c-0.931-1.38-1.86-2.76-2.76-4.16-5.13-7.6-11.3-12.4-19.2-16.8-0.919-0.534-1.84-1.07-2.79-1.62-4.04-1.74-7.74-2.27-12.1-2.7-0.826-0.0841-1.65-0.168-2.5-0.255-7.99-0.683-15.8-0.252-23.6 1.57l-2 2c-1.85 0.607-3.73 1.14-5.62 1.62-1 0.26-2.01 0.521-3.04 0.789-1.16 0.29-1.16 0.29-2.34 0.586v2c-1.54 1.15-1.54 1.15-3.62 2.38-0.733 0.445-1.47 0.889-2.22 1.35-1.74 1.03-3.48 2.06-5.21 3.09-14.3 10.7-24.2 30.6-29.9 47.2-0.324 0.886-0.647 1.77-0.98 2.68-2.85 8.38-4.3 16.9-5.71 25.6-0.157 0.965-0.313 1.93-0.475 2.93-0.137 0.87-0.274 1.74-0.415 2.64-0.417 2.13-0.417 2.13-1.42 4.13-1.01 6.68-1.19 13.4-1.27 20.2-0.0125 0.946-0.025 1.89-0.0378 2.87-0.287 27-0.513 55.6 10.3 81l2 2 1.12 3.69c3.82 11.9 10.5 22.2 18.9 31.3 0.686 0.779 1.37 1.56 2.08 2.36 8.18 8.78 18.7 15.4 29.9 19.6 0.802 0.347 1.6 0.694 2.43 1.05 7.04 2.87 13.9 3.81 21.4 4.55 3.21 0.395 3.21 0.395 4.21 1.39 2.99 0.1 5.95 0.139 8.94 0.125 1.26 0.0058 1.26 0.0058 2.54 0.0117 0.801-0.00129 1.6-0.00258 2.43-0.00391 0.737-0.00113 1.47-0.00226 2.23-0.00342 1.96-0.016 1.96-0.016 3.86-1.13 2.14-0.321 4.29-0.607 6.44-0.875 17.2-2.44 35.3-9.28 47.6-22.1 1.06-0.837 2.12-1.67 3.19-2.5 4.57-3.83 7.94-8.63 11.5-13.4 1.43-1.91 2.9-3.79 4.43-5.62 2.16-2.83 3.66-5.68 5.22-8.87 0.296-0.607 0.593-1.21 0.898-1.84 0.623-1.28 1.24-2.56 1.86-3.84 0.614-1.28 1.23-2.56 1.85-3.83 4.94-10.1 8.99-20.4 12.4-31.2 0.215-0.677 0.43-1.35 0.652-2.05 0.599-1.9 1.18-3.8 1.76-5.7 1.34-3.25 2.66-4.93 5.31-7.18l2 1c-0.751 7.38-0.751 7.38-1.88 10.2-0.949 2.39-1.65 4.65-2.31 7.13-2.62 9.85-5.65 19.4-9.5 28.8-0.38 0.942-0.761 1.88-1.15 2.85-1.68 4.02-2.96 7.01-6.16 10-0.736 1.41-1.42 2.86-2.06 4.31-5.47 11.3-13.9 23.1-23.9 30.7-0.722 0.742-1.44 1.48-2.19 2.25-1.81 1.75-1.81 1.75-3.81 1.75l-0.562 1.69c-3.6 5.79-10.9 8.78-16.8 11.9-1.72 0.927-3.41 1.91-5.06 2.95-9.19 5.24-20.1 7.18-30.4 8.9-3.05 0.405-3.05 0.405-5.17 1.58-1.44 0.0945-2.88 0.128-4.33 0.129l-2.71 0.00955c-0.968-0.00202-1.94-0.00405-2.93-0.00613-0.991 9.57e-4 -1.98 0.00191-3 0.0029-2.1 6.81e-4 -4.2-0.00117-6.29-0.00534-3.22-0.00535-6.44-5.32e-5 -9.66 0.00635-2.04-6.61e-4 -4.07-0.00194-6.11-0.00391-1.45 0.00304-1.45 0.00304-2.93 0.00613l-2.71-0.00955c-0.789-7.96e-4 -1.58-0.00159-2.39-0.00241-1.94-0.127-1.94-0.127-3.94-1.13-1.5-0.252-3-0.462-4.51-0.648-1.36-0.178-1.36-0.178-2.74-0.359-1.89-0.242-3.79-0.479-5.68-0.711-5.76-0.765-10.7-2.05-16.1-4.28-1.3-0.472-2.59-0.937-3.89-1.39-26.1-9.37-47.6-26.4-64.1-48.5-0.494-0.655-0.988-1.31-1.5-1.99-3.5-4.78-3.5-4.78-3.5-8.14h-2c-9.11-18.4-15.5-36.3-18.6-56.6-0.317-2.37-0.317-2.37-1.43-4.36-0.112-3.05-0.164-6.08-0.168-9.14-0.00333-0.913-0.00666-1.83-0.0101-2.77-0.00507-1.94-0.00741-3.87-0.00725-5.81-0.00218-2.95-0.0203-5.89-0.0393-8.84-0.00294-1.88-0.00492-3.76-0.00586-5.65-0.00719-0.876-0.0144-1.75-0.0218-2.66 0.0187-5.08 0.639-9.28 2.25-14.1 0.317-1.36 0.619-2.72 0.895-4.09 5.03-24.2 5.03-24.2 11.1-33.9 1.01-2 2.01-4 3-6 3.73-7.15 8-13.6 13-19.9 0.486-0.618 0.972-1.24 1.47-1.87 3.04-3.75 6.27-6.87 9.99-9.94 1.76-1.5 3.19-3.11 4.6-4.94 2.65-3.19 5.38-5.19 8.94-7.38 0.638-0.477 1.28-0.954 1.93-1.45 30.4-22.6 66.8-29 104-27.1zm-160 124v8h1v-8h-1zm0 36v6h1v-6h-1z" fill="#FDF7E6"/>
<path transform="translate(531,643)" d="m0 0h1v24h-1v-24z"/>
<path transform="translate(531,587)" d="m0 0h1v16h-1v-16z"/>
<path transform="translate(531,489)" d="m0 0h1v14h-1v-14z"/>
<path transform="translate(531,684)" d="m0 0h1v6h-1v-6z"/>
<path transform="translate(1079,964)" d="m0 0c3 1 3 1 3 1z"/>
<path transform="translate(1087,680)" d="m0 0 2 1z"/>
<path transform="translate(1093,679)" d="m0 0 2 1z"/>
<path transform="translate(768,551)" d="m0 0 2 1z"/>
</svg>
